# xmcd
#
# Track frame offsets: 
#        150
#        4479
#        8808
#        12906
#        17004
#        21481
#        25958
#        30292
#        34626
#        40047
#        45468
#        49444
#        53420
#        57372
#        61324
#        64887
#        68450
#        73291
#        78132
#        81707
#        85282
#        89621
#        93960
#        98226
#        102492
#        106158
#        109824
#        112899
#        115974
#        120795
#        125616
#        129414
#        133212
#        138455
#        143706
#        148401
#
# Disc length: 2039 seconds
#
# Revision: 0
# Processed by: cddbd v1.5.2PL0 Copyright (c) Steve Scherf et al.
# Submitted via: ExactAudioCopy v0.99pb5
#
DISCID=f307f524
DTITLE=Steve Trovato and Nick Stoubis - Playing the Blues - Blues Rhyt
DTITLE=hm Guitar
DYEAR=2010
DGENRE=Blues
TTITLE0=Austin Limits
TTITLE1=Austin Limits (backing track)
TTITLE2=Smokin'
TTITLE3=Smokin' (backing track)
TTITLE4=Mississippi Mud
TTITLE5=Mississippi Mud (backing track)
TTITLE6=Clarkdale
TTITLE7=Clarkdale (backing track)
TTITLE8=Deep Fried
TTITLE9=Deep Fried (backing track)
TTITLE10=Memphis Fat
TTITLE11=Memphis Fat (backing track)
TTITLE12=Everyday
TTITLE13=Everyday (backing track)
TTITLE14=Jump and Jive
TTITLE15=Jump and Jive (backing track)
TTITLE16=Cold Shoulder
TTITLE17=Cold Shoulder (backing track)
TTITLE18=Johnny Rock
TTITLE19=Johnny Rock (backing track)
TTITLE20=Detroit City
TTITLE21=Detroit City (backing track)
TTITLE22=Gumbo
TTITLE23=Gumbo (backing track)
TTITLE24=Highway 10
TTITLE25=Highway 10 (backing track)
TTITLE26=The General
TTITLE27=The General (backing track)
TTITLE28=Picket Fences
TTITLE29=Picket Fences (backing track)
TTITLE30=Lucy
TTITLE31=Lucy (backing track)
TTITLE32=New Shoes Blues
TTITLE33=New Shoes Blues (backing track)
TTITLE34=It's Gone
TTITLE35=It's Gone (backing track)
EXTD=
EXTT0=
EXTT1=
EXTT2=
EXTT3=
EXTT4=
EXTT5=
EXTT6=
EXTT7=
EXTT8=
EXTT9=
EXTT10=
EXTT11=
EXTT12=
EXTT13=
EXTT14=
EXTT15=
EXTT16=
EXTT17=
EXTT18=
EXTT19=
EXTT20=
EXTT21=
EXTT22=
EXTT23=
EXTT24=
EXTT25=
EXTT26=
EXTT27=
EXTT28=
EXTT29=
EXTT30=
EXTT31=
EXTT32=
EXTT33=
EXTT34=
EXTT35=
PLAYORDER=
